<?xml version="1.0" encoding="UTF-8" standalone="no"?>
<!DOCTYPE svg PUBLIC "-//W3C//DTD SVG 1.1//EN" "http://www.w3.org/Graphics/SVG/1.1/DTD/svg11.dtd">
<svg width="100%" height="100%" viewBox="0 0 667 474" version="1.1" xmlns="http://www.w3.org/2000/svg" xmlns:xlink="http://www.w3.org/1999/xlink" xml:space="preserve" xmlns:serif="http://www.serif.com/" style="fill-rule:evenodd;clip-rule:evenodd;stroke-miterlimit:10;">
    <g id="Artboard1" transform="matrix(0.979585,0,0,0.846344,117.55,16.9269)">
        <rect x="-120" y="-20" width="680" height="560" style="fill:none;"/>
        <clipPath id="_clip1">
            <rect x="-120" y="-20" width="680" height="560"/>
        </clipPath>
        <g clip-path="url(#_clip1)">
            <g transform="matrix(63.2155,0,0,42.1763,-36114.9,-11794.7)">
                <rect x="569.365" y="279.125" width="10.832" height="13.447"/>
            </g>
            <g transform="matrix(1.02084,0,0,1.18155,20.7484,-93.0768)">
                <path d="M107.737,177.361L52.385,177.361" style="fill:none;fill-rule:nonzero;stroke:white;stroke-width:3px;"/>
            </g>
            <g transform="matrix(1.02084,0,0,1.18155,20.7484,-93.0768)">
                <path d="M303.132,238.304L303.132,256.345L316.844,264.261L289.42,280.095L316.844,295.929L289.42,311.762L303.343,319.801L303.132,320.18L303.132,335.012" style="fill:none;fill-rule:nonzero;stroke:white;stroke-width:3px;"/>
            </g>
            <g transform="matrix(1.02084,0,0,1.18155,20.7484,-93.0768)">
                <path d="M303.132,357.389L68.885,357.389L68.885,256.417L107.737,256.417" style="fill:none;fill-rule:nonzero;stroke:white;stroke-width:3px;"/>
            </g>
            <g transform="matrix(1.02084,0,0,1.18155,20.7484,-93.0768)">
                <path d="M303.132,238.304L303.132,216.889L264.28,216.889" style="fill:none;fill-rule:nonzero;stroke:white;stroke-width:3px;"/>
            </g>
            <g transform="matrix(1.02084,0,0,1.18155,20.7484,-93.0768)">
                <path d="M303.132,335.012L303.132,357.389" style="fill:none;fill-rule:nonzero;stroke:white;stroke-width:3px;"/>
            </g>
            <g transform="matrix(1.02084,0,0,1.18155,20.7484,-93.0768)">
                <path d="M303.132,378.534L303.132,396.575L316.844,404.491L289.42,420.325L316.844,436.159L289.42,451.992L303.343,460.031L303.132,460.41L303.132,475.242" style="fill:none;fill-rule:nonzero;stroke:white;stroke-width:3px;"/>
            </g>
            <g transform="matrix(1.02084,0,0,1.18155,20.7484,-93.0768)">
                <path d="M303.132,378.534L303.132,357.389" style="fill:none;fill-rule:nonzero;stroke:white;stroke-width:3px;"/>
            </g>
            <g transform="matrix(1.02084,0,0,1.18155,20.7484,-93.0768)">
                <path d="M303.132,496.388L303.132,475.242" style="fill:none;fill-rule:nonzero;stroke:white;stroke-width:3px;"/>
            </g>
            <g transform="matrix(1.02084,0,0,1.18155,20.7484,-93.0768)">
                <path d="M316.844,496.388L289.42,496.388L303.132,512.889L316.844,496.388Z" style="fill:none;fill-rule:nonzero;stroke:white;stroke-width:3px;"/>
            </g>
            <g transform="matrix(1.02084,0,0,1.18155,354.478,345.148)">
                <text x="0px" y="0px" style="font-family:'DINOT', 'DIN OT', sans-serif;font-size:48px;fill:white;">a</text>
            </g>
            <g transform="matrix(1.02084,0,0,1.18155,20.7484,-93.0768)">
                <path d="M303.132,216.889L322.04,216.889" style="fill:none;fill-rule:nonzero;stroke:white;stroke-width:3px;"/>
            </g>
            <g transform="matrix(1.02084,0,0,1.18155,358.832,163.19)">
                <text x="0px" y="0px" style="font-family:'DINOT', 'DIN OT', sans-serif;font-size:48px;fill:white;">V</text>
            </g>
            <g transform="matrix(0.59515,0,0,0.688845,385.586,182.075)">
                <text x="0px" y="0px" style="font-family:'DINOT', 'DIN OT', sans-serif;font-size:48px;fill:white;">out</text>
            </g>
            <g transform="matrix(1.02084,0,0,1.18155,30.378,136.308)">
                <text x="0px" y="0px" style="font-family:'DINOT', 'DIN OT', sans-serif;font-size:48px;fill:white;">V</text>
            </g>
            <g transform="matrix(0.59515,0,0,0.688845,57.1317,155.195)">
                <text x="0px" y="0px" style="font-family:'DINOT', 'DIN OT', sans-serif;font-size:48px;fill:white;">in</text>
            </g>
            <g transform="matrix(1.02084,0,0,1.18155,113.17,401.861)">
                <text x="0px" y="0px" style="font-family:'DINOT', 'DIN OT', sans-serif;font-size:48px;fill:white;">V</text>
            </g>
            <g transform="matrix(0.59515,0,0,0.688845,139.924,420.746)">
                <text x="0px" y="0px" style="font-family:'DINOT', 'DIN OT', sans-serif;font-size:48px;fill:white;">+</text>
            </g>
            <g transform="matrix(1.02084,0,0,1.18155,161.949,401.861)">
                <text x="0px" y="0px" style="font-family:'DINOT', 'DIN OT', sans-serif;font-size:48px;fill:white;">= aV</text>
            </g>
            <g transform="matrix(0.59515,0,0,0.688845,252.254,420.746)">
                <text x="0px" y="0px" style="font-family:'DINOT', 'DIN OT', sans-serif;font-size:48px;fill:white;">out</text>
            </g>
            <g transform="matrix(1.02084,0,0,1.18155,20.7484,-93.0768)">
                <path d="M178.582,172.28L178.582,103.279L200.231,90.78L156.93,115.78" style="fill:none;fill-rule:nonzero;stroke:white;stroke-width:3px;"/>
            </g>
            <g transform="matrix(1.02084,0,0,1.18155,20.7484,-93.0768)">
                <path d="M200.232,317.998L156.931,342.998L178.581,330.498L178.581,261.498" style="fill:none;fill-rule:nonzero;stroke:white;stroke-width:3px;"/>
            </g>
            <g transform="matrix(1.02084,0,0,1.18155,20.7484,-93.0768)">
                <path d="M107.737,137.887L268.625,216.943L107.737,295.998L107.737,137.887Z" style="fill:none;fill-rule:nonzero;stroke:white;stroke-width:3px;"/>
            </g>
            <g transform="matrix(1.02084,0,0,1.18155,20.7484,-93.0768)">
                <path d="M122.093,256.471L146.926,256.471" style="fill:none;fill-rule:nonzero;stroke:white;stroke-width:3px;"/>
            </g>
            <g transform="matrix(1.02084,0,0,1.18155,20.7484,-93.0768)">
                <path d="M122.093,177.414L146.926,177.414" style="fill:none;fill-rule:nonzero;stroke:white;stroke-width:3px;"/>
            </g>
            <g transform="matrix(1.02084,0,0,1.18155,20.7484,-93.0768)">
                <path d="M134.51,244.054L134.51,268.887" style="fill:none;fill-rule:nonzero;stroke:white;stroke-width:3px;"/>
            </g>
        </g>
    </g>
</svg>
