<?xml version="1.0" encoding="utf-8"?>
<!-- Generator: Adobe Illustrator 16.0.0, SVG Export Plug-In . SVG Version: 6.00 Build 0)  -->
<!DOCTYPE svg PUBLIC "-//W3C//DTD SVG 1.1//EN" "http://www.w3.org/Graphics/SVG/1.1/DTD/svg11.dtd">
<svg version="1.1" id="Layer_1" xmlns="http://www.w3.org/2000/svg" xmlns:xlink="http://www.w3.org/1999/xlink" x="0px" y="0px"
	 width="129.338px" height="50.344px" viewBox="0 0 129.338 50.344" enable-background="new 0 0 129.338 50.344"
	 xml:space="preserve">
<path fill="#3573D9" d="M115.105,50.23c-0.43,0-0.857-0.112-1.233-0.33l-3.927-2.323c-0.586-0.328-0.3-0.444-0.107-0.512
	c0.783-0.271,0.941-0.334,1.776-0.808c0.087-0.049,0.202-0.03,0.292,0.022l3.017,1.791c0.109,0.061,0.264,0.061,0.364,0
	l11.761-6.788c0.109-0.063,0.18-0.188,0.18-0.318V27.393c0-0.133-0.07-0.258-0.183-0.324l-11.756-6.782
	c-0.108-0.064-0.253-0.064-0.362,0l-11.753,6.784c-0.114,0.064-0.187,0.192-0.187,0.322v13.572c0,0.13,0.072,0.252,0.186,0.314
	l3.222,1.861c1.748,0.873,2.818-0.155,2.818-1.189V28.55c0-0.188,0.152-0.338,0.342-0.338h1.491c0.187,0,0.341,0.149,0.341,0.338
	v13.401c0,2.333-1.271,3.671-3.482,3.671c-0.68,0-1.215,0-2.709-0.736l-3.084-1.775c-0.762-0.44-1.233-1.265-1.233-2.146V27.393
	c0-0.882,0.472-1.705,1.233-2.144l11.761-6.796c0.744-0.421,1.733-0.421,2.472,0l11.76,6.796c0.762,0.44,1.234,1.262,1.234,2.144
	v13.572c0,0.881-0.473,1.702-1.234,2.146l-11.76,6.79C115.968,50.118,115.541,50.23,115.105,50.23"/>
<path fill="#3573D9" d="M118.738,40.88c-5.146,0-6.225-2.362-6.225-4.344c0-0.189,0.151-0.339,0.34-0.339h1.521
	c0.17,0,0.312,0.122,0.338,0.288c0.229,1.548,0.914,2.329,4.026,2.329c2.478,0,3.532-0.561,3.532-1.875
	c0-0.759-0.299-1.32-4.149-1.697c-3.218-0.318-5.208-1.029-5.208-3.604c0-2.372,2-3.787,5.354-3.787
	c3.768,0,5.632,1.308,5.868,4.113c0.009,0.097-0.025,0.189-0.09,0.262c-0.064,0.067-0.154,0.108-0.249,0.108h-1.526
	c-0.158,0-0.298-0.113-0.33-0.266c-0.366-1.629-1.257-2.149-3.673-2.149c-2.705,0-3.02,0.942-3.02,1.648
	c0,0.855,0.371,1.104,4.023,1.588c3.614,0.478,5.331,1.154,5.331,3.694C124.602,39.412,122.465,40.88,118.738,40.88"/>
<g>
	<g>
		<defs>
			<rect id="SVGID_1_" x="64.253" y="15.715" width="34" height="34.333"/>
		</defs>
		<clipPath id="SVGID_2_">
			<use xlink:href="#SVGID_1_"  overflow="visible"/>
		</clipPath>
		<g clip-path="url(#SVGID_2_)">
			<defs>
				<rect id="SVGID_3_" x="64.253" y="15.716" width="34" height="34.333"/>
			</defs>
			<clipPath id="SVGID_4_">
				<use xlink:href="#SVGID_3_"  overflow="visible"/>
			</clipPath>
			<path clip-path="url(#SVGID_4_)" fill="#2E302C" d="M85.951,41.617c0,0.371,0.146,0.728,0.41,0.99
				c0.131,0.131,0.131,0.131,6.748,3.952c0.217,0.126,0.459,0.188,0.7,0.188c0.242,0,0.483-0.062,0.701-0.188
				c0.433-0.251,0.7-0.714,0.7-1.214V27.096c0-0.5-0.268-0.962-0.7-1.212l-12.56-7.249c-0.217-0.125-0.457-0.188-0.699-0.188
				c-0.241,0-0.483,0.063-0.7,0.188l-12.558,7.25c-0.433,0.25-0.699,0.712-0.699,1.212v18.25c0,0.5,0.267,0.963,0.701,1.214
				c0.215,0.125,0.457,0.188,0.699,0.188c0.241,0,0.483-0.062,0.7-0.188l6.46-3.73c0.434-0.25,0.7-0.712,0.7-1.212v-9.175
				c0-0.5,0.267-0.962,0.7-1.212l3.299-1.905c0.216-0.125,0.458-0.188,0.699-0.188c0.242,0,0.484,0.062,0.701,0.188l3.297,1.904
				c0.432,0.25,0.699,0.712,0.699,1.212V41.617"/>
			
				<line clip-path="url(#SVGID_4_)" fill="none" stroke="#6EBE44" stroke-miterlimit="10" x1="75.323" y1="41.318" x2="75.323" y2="41.318"/>
		</g>
	</g>
</g>
<line fill="none" x1="48.946" y1="39.871" x2="48.946" y2="50.344"/>
<g>
	<defs>
		<rect id="SVGID_5_" x="-3.689" y="14.885" width="35.333" height="37.667"/>
	</defs>
	<clipPath id="SVGID_6_">
		<use xlink:href="#SVGID_5_"  overflow="visible"/>
	</clipPath>
	<g clip-path="url(#SVGID_6_)">
		<defs>
			<rect id="SVGID_7_" x="-3.689" y="14.885" width="35.333" height="37.667"/>
		</defs>
		<clipPath id="SVGID_8_">
			<use xlink:href="#SVGID_7_"  overflow="visible"/>
		</clipPath>
		<path clip-path="url(#SVGID_8_)" fill-rule="evenodd" clip-rule="evenodd" fill="#3573D9" d="M13.978,50.344
			c-0.242,0-0.484-0.062-0.7-0.188l-12.557-7.25c-0.434-0.251-0.7-0.714-0.7-1.214l-0.001-14.5c0-0.5,0.267-0.961,0.7-1.212
			l12.557-7.25c0.217-0.125,0.459-0.188,0.7-0.188c0.242,0,0.483,0.063,0.7,0.188l12.559,7.25c0.432,0.249,0.7,0.712,0.7,1.212v14.5
			c0,0.5-0.268,0.962-0.7,1.212l-12.558,7.251C14.461,50.281,14.22,50.344,13.978,50.344 M14.679,39.464l3.298-1.903
			c0.432-0.25,0.7-0.713,0.7-1.213v-3.81c0-0.5-0.268-0.963-0.7-1.213l-3.298-1.903c-0.217-0.125-0.458-0.188-0.7-0.188
			c-0.242,0-0.484,0.063-0.7,0.188l-3.299,1.904c-0.433,0.25-0.7,0.712-0.7,1.212l0.001,3.81c0,0.5,0.267,0.963,0.7,1.213
			l3.298,1.903c0.216,0.125,0.458,0.187,0.7,0.187C14.22,39.65,14.462,39.589,14.679,39.464"/>
	</g>
</g>
<path fill="none" d="M30.251,49.871"/>
<line fill="none" x1="47.571" y1="39.871" x2="38.312" y2="45.216"/>
<g>
	<g>
		<defs>
			<rect id="SVGID_9_" x="30.946" y="8.697" width="32.166" height="43.834"/>
		</defs>
		<clipPath id="SVGID_10_">
			<use xlink:href="#SVGID_9_"  overflow="visible"/>
		</clipPath>
		<g clip-path="url(#SVGID_10_)">
			<defs>
				<rect id="SVGID_11_" x="30.946" y="8.697" width="32.167" height="43.834"/>
			</defs>
			<clipPath id="SVGID_12_">
				<use xlink:href="#SVGID_11_"  overflow="visible"/>
			</clipPath>
			<path clip-path="url(#SVGID_12_)" fill="#3573D9" d="M53.71,24.493c-0.242,0-0.482-0.062-0.7-0.187
				c-0.433-0.25-0.699-0.713-0.699-1.213V16.05c0-0.5,0.267-0.962,0.699-1.212l6.461-3.729c0.217-0.125,0.459-0.187,0.699-0.187
				c0.242,0,0.483,0.062,0.7,0.187c0.434,0.25,0.7,0.713,0.7,1.213v7.042c0,0.502-0.271,0.966-0.705,1.215
				c-0.12,0.069-6.455,3.727-6.455,3.727C54.193,24.431,53.951,24.493,53.71,24.493"/>
			<path clip-path="url(#SVGID_12_)" fill="#3573D9" d="M60.17,42.847c-0.241,0-0.482-0.062-0.7-0.188l-6.46-3.729
				c-0.433-0.25-0.699-0.713-0.699-1.213v-7.043c0-0.5,0.267-0.962,0.699-1.212l6.46-3.729c0.218-0.125,0.459-0.188,0.7-0.188
				c0.242,0,0.483,0.062,0.7,0.188c0.433,0.25,0.7,0.713,0.7,1.213v14.499c0,0.5-0.268,0.962-0.7,1.212
				C60.653,42.784,60.412,42.847,60.17,42.847"/>
		</g>
	</g>
</g>
<g>
	<g>
		<defs>
			<rect id="SVGID_13_" x="33.651" y="-2.564" width="15.358" height="52.9"/>
		</defs>
		<clipPath id="SVGID_14_">
			<use xlink:href="#SVGID_13_"  overflow="visible"/>
		</clipPath>
		<g clip-path="url(#SVGID_14_)">
			<defs>
				<rect id="SVGID_15_" x="33.651" y="-2.564" width="15.358" height="52.9"/>
			</defs>
			<clipPath id="SVGID_16_">
				<use xlink:href="#SVGID_15_"  overflow="visible"/>
			</clipPath>
			<path clip-path="url(#SVGID_16_)" fill="#2E302C" d="M48.306,40.264l-4.696-2.711c-0.433-0.25-0.7-0.713-0.7-1.213V5.133
				c0-0.5-0.267-0.962-0.7-1.212c-6.768-3.908-6.783-3.916-7.156-3.916h-0.003c-0.773,0-1.4,0.627-1.4,1.4v40.28
				c0,0.5,0.267,0.962,0.7,1.212l12.559,7.252c0.216,0.125,0.458,0.188,0.7,0.188c0.241,0,0.482-0.062,0.699-0.188
				c0.435-0.25,0.7-0.712,0.7-1.212l-0.002-7.46C49.006,40.975,48.74,40.513,48.306,40.264"/>
		</g>
	</g>
</g>
</svg>
